<?xml version="1.0" standalone="no"?><!DOCTYPE svg PUBLIC "-//W3C//DTD SVG 1.1//EN" "http://www.w3.org/Graphics/SVG/1.1/DTD/svg11.dtd"><svg t="1616815513489" class="icon" viewBox="0 0 1024 1024" version="1.1" xmlns="http://www.w3.org/2000/svg" p-id="13785" xmlns:xlink="http://www.w3.org/1999/xlink" width="200" height="200"><defs><style type="text/css"></style></defs><path d="M51.2 51.2m153.6 0l609.28 0q153.6 0 153.6 153.6l0 609.28q0 153.6-153.6 153.6l-609.28 0q-153.6 0-153.6-153.6l0-609.28q0-153.6 153.6-153.6Z" fill="#ff6b6a" opacity=".2" p-id="13786"></path><path d="M418.42176 347.40736A71.91552 71.91552 0 1 0 490.3424 419.328a71.99744 71.99744 0 0 0-71.92064-71.92064z m424.57088 129.18784l-295.74656-295.71584A58.1888 58.1888 0 0 0 506.10176 163.84H223.04256A58.18368 58.18368 0 0 0 164.864 221.81376L163.84 506.01984a58.18368 58.18368 0 0 0 17.03936 41.344l295.65952 295.6288a58.1888 58.1888 0 0 0 82.28864 0l284.16-284.11904a58.17856 58.17856 0 0 0 0.00512-82.2784z m-424.57088 68.40832a125.68064 125.68064 0 1 1 125.696-125.67552 125.82912 125.82912 0 0 1-125.696 125.67552z" fill="#ff6b6a" p-id="13787"></path></svg>